# xmcd
#
# Track frame offsets: 
#        150
#        12857
#        25221
#        35356
#        44708
#        56976
#        65991
#        78039
#        93324
#        102656
#        111419
#        123209
#        133354
#        145139
#        156756
#        165667
#        176037
#        182527
#        197523
#        203540
#        215288
#        230533
#        244451
#        252742
#        263807
#        274828
#        283177
#        293081
#        305815
#        322043
#        337338
#
# Disc length: 4527 seconds
#
# Revision: 1
# Processed by: cddbd v1.5.2PL0 Copyright (c) Steve Scherf et al.
# Submitted via: ExactAudioCopy v1.3
#
DISCID=eb11ad1f
DTITLE=Various Artist - Louisiana Hayride CD 07 (Live Dec 1956 - 1957
DTITLE=)
DYEAR=2017
DGENRE=Country
TTITLE0=Elvis Presley - Don't Be Cruel
TTITLE1=Elvis Presley - When My Blue Moon Turns To Gold Again
TTITLE2=Elvis Presley - Long Tall Sally
TTITLE3=Horace Logan - Elvis has left the building and announcements
TTITLE4=The Geezinslaw Brothers - Orange Blossom Special
TTITLE5=Buffalo Yount - (intro) Bile 'Em Cabbage Down
TTITLE6=Jimmy and Johnny - I'll Do It Every Time
TTITLE7=Carl Belew - Lonely Street
TTITLE8=Jack Ford - Lonesome Letter Blues
TTITLE9=Hayriders - Little Maggie (& talk and outro theme)
TTITLE10=Johnny Horton - I'll Do It Every Time
TTITLE11=Martha Lynn - I Can't Live Without Love
TTITLE12=James O'Gwynn - Do You Miss Me?
TTITLE13=Betty Amos - Loose Talk
TTITLE14=Jack Ford and The Four B's - Heaven's Just A Prayer Away
TTITLE15=Jimmy and Johnny - What You Doin' To Me?
TTITLE16=outro and theme
TTITLE17=James O'Gwynn - (intro theme) I Cry
TTITLE18=Buffalo Yount - Devil's Dream
TTITLE19=Martha Lynn - Let Me Talk To You
TTITLE20=Linda Brannon - I'll Be Lonesome When You're Gone
TTITLE21=The Four B's - (intro and theme) That'll Be The Day
TTITLE22=Johnny Horton - Take The Long Way Home Tonight
TTITLE23=Charlie Phillips - Sugar Time
TTITLE24=Tommy Blake - Flatfoot Sam
TTITLE25=outro and theme
TTITLE26=Carl Smith - You Are The One
TTITLE27=Johnny Mathis - (intro and Frank Page) Honeycomb 
TTITLE28=Johnny Horton - John Henry
TTITLE29=Jimmy Edwards - Love Bug Crawl
TTITLE30=outro and theme
EXTD=
EXTT0=
EXTT1=
EXTT2=
EXTT3=
EXTT4=
EXTT5=
EXTT6=
EXTT7=
EXTT8=
EXTT9=
EXTT10=
EXTT11=
EXTT12=
EXTT13=
EXTT14=
EXTT15=
EXTT16=
EXTT17=
EXTT18=
EXTT19=
EXTT20=
EXTT21=
EXTT22=
EXTT23=
EXTT24=
EXTT25=
EXTT26=
EXTT27=
EXTT28=
EXTT29=
EXTT30=
PLAYORDER=
